<?xml version="1.0" standalone="no"?>
<!DOCTYPE svg PUBLIC "-//W3C//DTD SVG 20010904//EN"
 "http://www.w3.org/TR/2001/REC-SVG-20010904/DTD/svg10.dtd">
<svg version="1.0" xmlns="http://www.w3.org/2000/svg"
 width="256.000000pt" height="256.000000pt" viewBox="0 0 256.000000 256.000000"
 preserveAspectRatio="xMidYMid meet">

<g transform="translate(0.000000,256.000000) scale(0.100000,-0.100000)"
fill="#000000" stroke="none">
<path d="M1183 2399 c-446 -33 -835 -343 -972 -774 -38 -119 -52 -216 -52
-355 2 -530 354 -962 891 -1092 36 -9 117 -13 240 -12 156 0 197 4 262 22 414
114 712 412 819 819 26 101 36 328 19 444 -64 442 -395 807 -835 919 -66 17
-104 22 -235 34 -19 1 -81 -1 -137 -5z m757 -484 l0 -86 -102 3 -103 3 -3 69
c-2 38 -1 74 1 80 3 7 43 12 106 14 l101 4 0 -87z m-398 -190 c24 -17 54 -51
68 -75 24 -44 25 -51 28 -272 l3 -227 47 -3 47 -3 3 -102 3 -103 -136 0 c-122
0 -137 2 -155 20 -11 11 -20 27 -20 35 0 10 -13 6 -47 -15 -84 -51 -239 -58
-323 -15 -81 42 -123 118 -128 231 -5 99 20 167 79 218 96 82 286 89 390 16
l29 -21 0 70 0 71 -205 0 -205 0 0 106 0 105 239 -3 239 -3 44 -30z m-730
-752 c117 -53 188 -165 191 -301 1 -42 -1 -78 -5 -79 -5 -2 -50 -3 -102 -3
l-94 0 -4 66 c-4 62 -7 69 -41 100 -34 31 -42 34 -102 34 l-65 0 0 106 0 106
88 -4 c59 -3 102 -11 134 -25z"/>
<path d="M1183 1280 c-59 -24 -67 -107 -13 -135 39 -20 181 -20 220 0 56 29
48 113 -13 135 -36 12 -163 12 -194 0z"/>
</g>
</svg>
